<?xml version="1.0" standalone="no"?>
<!DOCTYPE svg PUBLIC "-//W3C//DTD SVG 20010904//EN"
 "http://www.w3.org/TR/2001/REC-SVG-20010904/DTD/svg10.dtd">

<svg version="1.0" xmlns="http://www.w3.org/2000/svg"
 width="117.000000pt" height="128.000000pt" viewBox="0 0 117.000000 128.000000"
 preserveAspectRatio="xMidYMid meet">
    
    <defs>
        <filter id="glow">
            <feGaussianBlur stdDeviation="30" result="coloredBlur"/>
            <feMerge>
                <feMergeNode in="coloredBlur"/>
                <feMergeNode in="SourceGraphic"/>
            </feMerge>
        </filter>
    </defs>

    <g transform="translate(0.000000,128.000000) scale(0.100000,-0.100000)"
    fill="#000000" stroke="none" id="myGroup" >
        <path d="M114 1270 c-35 -11 -104 -81 -104 -105 0 -12 4 -13 19 -5 28 14 79
        12 166 -7 61 -13 82 -14 115 -4 43 13 89 47 120 91 l20 29 -40 -16 c-38 -15
        -47 -15 -113 0 -101 23 -147 28 -183 17z"/>
        <path d="M493 1214 c-126 -85 -132 -91 -154 -139 -16 -34 -19 -67 -19 -230 0
        -145 -4 -196 -14 -217 -18 -34 -7 -35 46 -6 68 38 72 55 78 301 l5 219 33 29
        c40 36 55 36 81 0 48 -67 47 -160 -3 -245 -33 -56 -56 -67 -56 -26 0 17 -5 30
        -12 30 -8 0 -10 -51 -5 -195 l6 -196 -37 8 c-106 21 -208 -7 -289 -81 -30 -27
        -52 -50 -50 -52 2 -2 28 6 58 17 102 39 265 7 289 -56 12 -31 13 -31 45 1 16
        15 34 24 48 22 21 -3 22 -8 22 -83 0 -44 -3 -92 -8 -107 -7 -26 -6 -27 21 -17
        15 5 40 21 56 36 53 49 56 70 56 353 0 247 -1 261 -20 280 -17 17 -52 25 -107
        23 -21 -1 -15 11 22 40 72 57 115 168 100 256 -7 43 -52 101 -78 101 -8 0 -59
        -30 -114 -66z m72 -360 c10 -11 15 -29 13 -53 -3 -35 -4 -36 -43 -36 -39 0
        -40 1 -43 40 -5 57 37 85 73 49z m13 -150 l-3 -47 -43 -1 -42 -1 0 48 0 47 46
        0 45 0 -3 -46z m-20 -60 c20 -6 22 -12 22 -74 0 -78 -14 -91 -62 -57 -25 16
        -28 25 -28 72 0 62 13 73 68 59z"/>
        <path d="M255 1083 c-16 -8 -39 -23 -49 -32 -26 -22 -56 -90 -56 -128 0 -30
        -3 -33 -29 -33 -37 0 -61 -31 -61 -80 0 -43 14 -70 23 -46 4 10 18 16 37 16
        l31 0 -3 -117 c-2 -65 -7 -126 -12 -137 -18 -37 74 36 100 79 23 40 24 48 24
        234 0 145 4 200 14 226 8 19 14 35 13 35 -1 -1 -15 -8 -32 -17z"/>
        <path d="M739 854 c-10 -12 -10 -20 -1 -35 9 -13 12 -111 12 -350 l0 -330 -22
        8 c-13 4 -59 8 -103 8 -88 0 -159 -26 -222 -79 -45 -38 -45 -60 0 -38 52 27
        170 23 231 -9 l48 -25 69 70 c38 39 69 74 69 78 0 12 -14 10 -28 -4 -9 -9 -12
        17 -12 120 l0 133 88 -3 87 -3 3 -114 c3 -111 2 -115 -23 -141 l-26 -27 57
        -55 58 -56 73 61 c48 40 69 65 63 71 -7 7 -14 6 -22 -2 -9 -9 -17 -7 -35 10
        -23 21 -23 22 -23 307 l0 286 30 17 c30 17 41 40 18 37 -32 -4 -50 3 -81 31
        -19 17 -38 30 -41 30 -4 0 -34 -18 -67 -41 -56 -38 -71 -63 -31 -52 10 2 26
        -4 35 -15 15 -16 17 -36 15 -123 l-3 -104 -87 -3 -88 -3 0 148 c0 81 4 155 9
        162 12 18 -4 51 -23 51 -8 0 -19 -7 -27 -16z"/>


    </g>

</svg>
